<svg xmlns="http://www.w3.org/2000/svg" width="193.28" height="23.904" viewBox="0 0 193.28 23.904">
  <path id="Path_1" data-name="Path 1" d="M17.44-15.168H22.3a9.209,9.209,0,0,0-1.088-3.52,8.56,8.56,0,0,0-2.192-2.576,9.659,9.659,0,0,0-3.008-1.584,11.512,11.512,0,0,0-3.568-.544,11.54,11.54,0,0,0-4.72.928A10.1,10.1,0,0,0,4.192-19.9,11.415,11.415,0,0,0,1.984-16.08a14.276,14.276,0,0,0-.768,4.752,13.8,13.8,0,0,0,.768,4.656,11.12,11.12,0,0,0,2.208,3.76A10.114,10.114,0,0,0,7.728-.4a11.716,11.716,0,0,0,4.72.912,11.255,11.255,0,0,0,3.872-.64,8.977,8.977,0,0,0,3.072-1.856A9.274,9.274,0,0,0,21.5-4.928,11.615,11.615,0,0,0,22.5-8.8H17.632a6.511,6.511,0,0,1-1.584,3.712,4.649,4.649,0,0,1-3.6,1.408,5.865,5.865,0,0,1-2.88-.656A5.494,5.494,0,0,1,7.648-6.08,7.567,7.567,0,0,1,6.576-8.528a11.631,11.631,0,0,1-.336-2.8,12.5,12.5,0,0,1,.336-2.912,7.712,7.712,0,0,1,1.072-2.512,5.438,5.438,0,0,1,1.92-1.76,5.865,5.865,0,0,1,2.88-.656,5.223,5.223,0,0,1,1.776.3,5.165,5.165,0,0,1,1.52.848,5.05,5.05,0,0,1,1.12,1.264A4.1,4.1,0,0,1,17.44-15.168Zm7.808,3.712a5.278,5.278,0,0,1,.8-2.656,5.448,5.448,0,0,1,1.792-1.7,7.809,7.809,0,0,1,2.448-.912,13.918,13.918,0,0,1,2.736-.272,18.542,18.542,0,0,1,2.528.176,7.733,7.733,0,0,1,2.336.688A4.6,4.6,0,0,1,39.616-14.7a3.979,3.979,0,0,1,.672,2.416V-3.68a17.288,17.288,0,0,0,.128,2.144A3.876,3.876,0,0,0,40.864,0H36.256a6.52,6.52,0,0,1-.208-.784,6.827,6.827,0,0,1-.112-.816,5.921,5.921,0,0,1-2.56,1.568,10.275,10.275,0,0,1-3.008.448A8.127,8.127,0,0,1,28.16.128a5.057,5.057,0,0,1-1.792-.9,4.171,4.171,0,0,1-1.2-1.536,5.193,5.193,0,0,1-.432-2.208,4.824,4.824,0,0,1,.5-2.32,4.147,4.147,0,0,1,1.28-1.456A5.735,5.735,0,0,1,28.3-9.1a19.13,19.13,0,0,1,2.032-.432q1.024-.16,2.016-.256a12.123,12.123,0,0,0,1.76-.288,3.068,3.068,0,0,0,1.216-.56,1.229,1.229,0,0,0,.416-1.072,2.411,2.411,0,0,0-.24-1.168,1.765,1.765,0,0,0-.64-.672,2.518,2.518,0,0,0-.928-.32,7.594,7.594,0,0,0-1.136-.08,3.449,3.449,0,0,0-2.112.576,2.571,2.571,0,0,0-.9,1.92Zm10.5,3.36a2.038,2.038,0,0,1-.72.4,7.354,7.354,0,0,1-.928.24q-.5.1-1.04.16t-1.088.16a8.206,8.206,0,0,0-1.008.256,2.98,2.98,0,0,0-.864.432,2.054,2.054,0,0,0-.592.688A2.213,2.213,0,0,0,29.28-4.7,2.138,2.138,0,0,0,29.5-3.68a1.717,1.717,0,0,0,.608.656,2.566,2.566,0,0,0,.9.336,5.719,5.719,0,0,0,1.056.1,4.017,4.017,0,0,0,2.08-.448,3,3,0,0,0,1.088-1.072,3.428,3.428,0,0,0,.432-1.264,8.683,8.683,0,0,0,.08-1.024Zm8.064-8.448V0h4.544V-7.456a9.144,9.144,0,0,1,.224-2.08,4.555,4.555,0,0,1,.752-1.68,3.658,3.658,0,0,1,1.392-1.136,4.841,4.841,0,0,1,2.112-.416,8.115,8.115,0,0,1,.864.048q.448.048.768.112v-4.224a3.544,3.544,0,0,0-.992-.16,5.426,5.426,0,0,0-1.664.256,6.1,6.1,0,0,0-1.5.72,5.66,5.66,0,0,0-1.248,1.12,5.588,5.588,0,0,0-.864,1.424h-.064v-3.072Zm15.9,8.288a9.929,9.929,0,0,1,.192-1.952,4.98,4.98,0,0,1,.656-1.7,3.685,3.685,0,0,1,1.232-1.2,3.657,3.657,0,0,1,1.92-.464,3.744,3.744,0,0,1,1.936.464A3.638,3.638,0,0,1,66.9-11.9a4.98,4.98,0,0,1,.656,1.7,9.929,9.929,0,0,1,.192,1.952,9.689,9.689,0,0,1-.192,1.936,5.157,5.157,0,0,1-.656,1.7,3.454,3.454,0,0,1-1.248,1.2,3.851,3.851,0,0,1-1.936.448,3.761,3.761,0,0,1-1.92-.448,3.494,3.494,0,0,1-1.232-1.2,5.158,5.158,0,0,1-.656-1.7A9.689,9.689,0,0,1,59.712-8.256Zm-4.544,0a10.025,10.025,0,0,0,.608,3.584A7.775,7.775,0,0,0,57.5-1.936,7.559,7.559,0,0,0,60.192-.192a9.67,9.67,0,0,0,3.52.608,9.8,9.8,0,0,0,3.536-.608,7.531,7.531,0,0,0,2.7-1.744A7.775,7.775,0,0,0,71.68-4.672a10.025,10.025,0,0,0,.608-3.584,10.156,10.156,0,0,0-.608-3.6,7.747,7.747,0,0,0-1.728-2.752,7.712,7.712,0,0,0-2.7-1.76,9.575,9.575,0,0,0-3.536-.624,9.449,9.449,0,0,0-3.52.624,7.743,7.743,0,0,0-2.688,1.76,7.747,7.747,0,0,0-1.728,2.752A10.156,10.156,0,0,0,55.168-8.256Zm25.824-8.288V-21.5H76.448v4.96H73.7v3.04h2.752v9.76a4.227,4.227,0,0,0,.416,2.016A2.965,2.965,0,0,0,78-.544a4.717,4.717,0,0,0,1.664.56,13.265,13.265,0,0,0,2,.144q.672,0,1.376-.032A10.813,10.813,0,0,0,84.32,0V-3.52a6.366,6.366,0,0,1-.672.1q-.352.032-.736.032a2.224,2.224,0,0,1-1.536-.384,2.224,2.224,0,0,1-.384-1.536V-13.5H84.32v-3.04ZM91.168-19.1v-3.744H86.624V-19.1Zm-4.544,2.56V0h4.544V-16.544ZM106.5-8.32a10.094,10.094,0,0,1-.192,1.984,5.377,5.377,0,0,1-.64,1.712,3.4,3.4,0,0,1-1.2,1.2,3.6,3.6,0,0,1-1.872.448,3.376,3.376,0,0,1-1.808-.464,3.992,3.992,0,0,1-1.248-1.216,5.243,5.243,0,0,1-.72-1.712,8.425,8.425,0,0,1-.224-1.92,9.122,9.122,0,0,1,.208-1.968,5.233,5.233,0,0,1,.672-1.68A3.542,3.542,0,0,1,100.7-13.12a3.692,3.692,0,0,1,1.888-.448,3.517,3.517,0,0,1,1.856.448,3.693,3.693,0,0,1,1.2,1.168,4.81,4.81,0,0,1,.656,1.664A9.853,9.853,0,0,1,106.5-8.32Zm.064,6.208V0h4.32V-22.848h-4.544v8.32h-.064a4.878,4.878,0,0,0-2.1-1.84,6.505,6.505,0,0,0-2.8-.624,6.806,6.806,0,0,0-3.2.72,6.86,6.86,0,0,0-2.288,1.9,8.359,8.359,0,0,0-1.376,2.736,11.167,11.167,0,0,0-.464,3.216,11.888,11.888,0,0,0,.464,3.328,8.859,8.859,0,0,0,1.376,2.832A6.552,6.552,0,0,0,98.208-.3a7.074,7.074,0,0,0,3.264.72A6.97,6.97,0,0,0,104.4-.176a4.687,4.687,0,0,0,2.1-1.936ZM128.7-13.6v-5.344h4.7a7.324,7.324,0,0,1,1.3.112,3.237,3.237,0,0,1,1.1.4,2.131,2.131,0,0,1,.768.8,2.656,2.656,0,0,1,.288,1.312A2.417,2.417,0,0,1,136-14.24a3.612,3.612,0,0,1-2.208.64Zm-5.024-9.248V0h11.072a11.683,11.683,0,0,0,2.992-.384,8,8,0,0,0,2.592-1.184,5.831,5.831,0,0,0,1.808-2.064,6.288,6.288,0,0,0,.672-2.992,6.331,6.331,0,0,0-1.04-3.664,5.491,5.491,0,0,0-3.152-2.128,5.7,5.7,0,0,0,2.32-1.888,5,5,0,0,0,.784-2.88,6.129,6.129,0,0,0-.528-2.688,4.39,4.39,0,0,0-1.488-1.744,6.426,6.426,0,0,0-2.3-.944,14.23,14.23,0,0,0-2.976-.288ZM128.7-3.9v-6.272h5.472a4.233,4.233,0,0,1,2.624.752,2.954,2.954,0,0,1,.992,2.512,3.141,3.141,0,0,1-.3,1.472,2.416,2.416,0,0,1-.816.912,3.455,3.455,0,0,1-1.184.48,6.7,6.7,0,0,1-1.408.144Zm17.024-12.64V0h4.544V-7.456a9.144,9.144,0,0,1,.224-2.08,4.555,4.555,0,0,1,.752-1.68,3.658,3.658,0,0,1,1.392-1.136,4.841,4.841,0,0,1,2.112-.416,8.115,8.115,0,0,1,.864.048q.448.048.768.112v-4.224a3.544,3.544,0,0,0-.992-.16,5.426,5.426,0,0,0-1.664.256,6.1,6.1,0,0,0-1.5.72,5.661,5.661,0,0,0-1.248,1.12,5.589,5.589,0,0,0-.864,1.424h-.064v-3.072ZM173.7,0V-16.544h-4.544v8.672a6.137,6.137,0,0,1-.832,3.632,3.148,3.148,0,0,1-2.688,1.1,2.479,2.479,0,0,1-2.272-1.008,5.8,5.8,0,0,1-.64-3.056v-9.344h-4.544V-6.368a13.334,13.334,0,0,0,.272,2.8,5.325,5.325,0,0,0,.944,2.144,4.318,4.318,0,0,0,1.84,1.36,7.948,7.948,0,0,0,2.992.48,6.611,6.611,0,0,0,2.816-.64,5.112,5.112,0,0,0,2.24-2.08h.1V0Zm8.128-19.1v-3.744H177.28V-19.1Zm-4.544,2.56V0h4.544V-16.544Zm13.888,0V-21.5h-4.544v4.96h-2.752v3.04h2.752v9.76a4.227,4.227,0,0,0,.416,2.016,2.965,2.965,0,0,0,1.136,1.184,4.716,4.716,0,0,0,1.664.56,13.265,13.265,0,0,0,2,.144q.672,0,1.376-.032A10.812,10.812,0,0,0,194.5,0V-3.52a6.366,6.366,0,0,1-.672.1q-.352.032-.736.032a2.224,2.224,0,0,1-1.536-.384,2.224,2.224,0,0,1-.384-1.536V-13.5H194.5v-3.04Z" transform="translate(-1.216 23.392)"/>
</svg>
